# xmcd
#
# Track frame offsets:
#	150
#	17775
#	33300
#	49629
#	67729
#	85485
#
# Disc length: 1344 seconds
#
# Revision: 0
# Processed by: cddbd v1.4PL0 Copyright (c) Steve Scherf et al.
# Submitted via: dBpowerAMP V4.0
#
DISCID=41053e06
DTITLE=Various Artist - Q106 Class Of 2001
DYEAR=2001
DGENRE=Country
TTITLE0=Jamie O'Neal-There Is No Arizona
TTITLE1=Kortney Kayle-Don't Let Me Down
TTITLE2=Rascal Flatts-Prayin' For Daylight
TTITLE3=Jessica Andrews-Make Me Love You
TTITLE4=Chalee Tennison-Go Back
TTITLE5=Chris Cagle-Country By The Grace Of God
EXTD=
EXTT0=
EXTT1=
EXTT2=
EXTT3=
EXTT4=
EXTT5=
PLAYORDER=
